<svg xmlns="http://www.w3.org/2000/svg" width="745.912" height="58" viewBox="0 0 745.912 58">
  <g id="Group_6" data-name="Group 6" transform="translate(-2955.088 83)">
    <g id="Group_1" data-name="Group 1" transform="translate(2914.178 -117.629)">
      <path id="Path_1" data-name="Path 1" d="M6.882,0,34.789.383a7.157,7.157,0,0,1,7.072,6.962,6.7,6.7,0,0,1-6.881,6.771L7.073,13.734A7.157,7.157,0,0,1,0,6.772,6.7,6.7,0,0,1,6.882,0Z" transform="translate(84.223 51.857) rotate(150)" fill="#fe2c25" opacity="0.998"/>
      <path id="Path_2" data-name="Path 2" d="M7.073.383,34.98,0a6.7,6.7,0,0,1,6.881,6.771,7.157,7.157,0,0,1-7.072,6.962l-27.907.382A6.7,6.7,0,0,1,0,7.345,7.157,7.157,0,0,1,7.073.383Z" transform="translate(77.165 86.41) rotate(-150)" fill="#2785fc" opacity="0.998"/>
      <path id="Path_4" data-name="Path 4" d="M7.073,13.734l27.907.382a6.7,6.7,0,0,0,6.881-6.771A7.157,7.157,0,0,0,34.789.383L6.882,0A6.7,6.7,0,0,0,0,6.772,7.157,7.157,0,0,0,7.073,13.734Z" transform="translate(86.32 74.185) rotate(-30)" fill="#ffba00" opacity="0.998"/>
      <path id="Path_3" data-name="Path 3" d="M6.882,14.116l27.907-.382a7.157,7.157,0,0,0,7.072-6.962A6.7,6.7,0,0,0,34.98,0L7.073.383A7.157,7.157,0,0,0,0,7.345a6.7,6.7,0,0,0,6.882,6.771Z" transform="translate(93.378 39.631) rotate(30)" fill="#00a050" opacity="0.998"/>
    </g>
    <text id="Developer_Student_Clubs_KIET" data-name="Developer Student Clubs KIET" transform="translate(3055 -37)" fill="#676c72" font-size="48" font-family="ProductSans-Medium, Product Sans Medium" font-weight="500"><tspan x="0" y="0">Developer Student Clubs </tspan><tspan y="0" font-family="ProductSans-Black, Product Sans Black" font-weight="800">KIET</tspan></text>
  </g>
</svg>
